<svg xmlns="http://www.w3.org/2000/svg" viewBox="0 0 1209.16 237.69"><defs><style>.cls-1{fill:#f08329;}.cls-2{fill:#e5e0d1;}</style></defs><title>Asset 1</title><g id="Layer_2" data-name="Layer 2"><g id="logo"><g id="logo--a"><path id="logo--a-outer" class="cls-1" d="M973.82,228.86c-5.17,0-4-5.2-3.52-6.41,2.41-6,3.08-7.64,5.29-13.11q24-59.43,48.05-118.87c7.39-18.37,14.45-36.86,21.82-55.24,3.1-7.73,6.45-15.33,12.24-21.6,14.22-15.4,46.17-18.69,62.13,4.38,4.23,6.11,7,13.29,10,20.2,14.62,34.37,29.06,68.81,43.59,103.22q17.79,42.12,35.63,84.22h0a1.83,1.83,0,0,1-1.68,2.54H1073.86a1.84,1.84,0,0,1-1.84-1.84v-20a1.85,1.85,0,0,1,1.71-1.84c.47,0,.93-.07,1.39-.07,29.19-.29,58.39-.48,87.58-.88,9-.12,9.42-.69,6.56-9.49-2.95-9.07-7-17.81-10.66-26.62q-21.49-51-43.09-102c-3.89-9.22-7.67-18.49-11.6-27.7a43.7,43.7,0,0,0-3-5.25c-6.8-11.26-23.49-8.66-28.28,2-5.81,12.92-11,26.11-16.41,39.21-6.91,16.74-13.74,33.5-20.64,50.24q-16.65,40.4-33.33,80.79c-2.56,6.24-4.87,12.59-7.37,18.85-2.09,5.22-2.15,5.2-7.6,5.2S979.68,228.86,973.82,228.86Z"/><path id="logo--a-inner" class="cls-2" d="M1147.5,191H1072v-23l4.05-.1c11.38-.29,22.76-.55,34.13-.92,4.75-.15,5.42-.65,4.21-5.22a133.58,133.58,0,0,0-5.85-16.48c-4.84-11.75-9.89-23.42-14.9-35.11a20.87,20.87,0,0,0-2.37-4.44c-3.14-4.14-6.56-3.64-8.57,1.2-4.4,10.6-8.74,21.22-13.12,31.82q-14.89,36-29.77,72c-2.05,5-3.84,10.08-5.76,15.12-.87,2.28-2.44,3.06-5,3-7.3-.17-14.61-.06-22.69-.06,1.76-4.46,3.24-8.38,4.83-12.25,16.22-39.44,32.56-78.84,48.62-118.34,6.69-16.44,12.92-33.07,19.45-49.58a76.48,76.48,0,0,1,3.72-7.93c1.78-3.32,5.64-3.67,7.79-.49a46.36,46.36,0,0,1,4.21,8.42c9,21.95,17.9,44,27,65.89,8.22,19.85,16.62,39.62,25,59.41,1.48,3.51,3,7,4.65,10.78A4.48,4.48,0,0,1,1147.5,191Z"/></g><g id="logo--r"><path id="logo--r-outer" class="cls-1" d="M943.58,186.69a3.56,3.56,0,0,1-3.42,3.66l-.73,0c-8.46.46-16.91.81-25.06-2.18-25.41-9.33-33.71-39.79-16.61-60.73,4-4.88,8-9.77,11.6-14.94,8-11.52,9.8-24.64,8.08-38.12C914.37,50.29,900.11,35,877.78,26.83c-21-7.66-46.71-.06-60.42,17.35-9.37,11.9-14.26,25-14,40.5.67,46.44.67,92.89,1.08,139.33,0,3.54-.93,4.75-4.48,4.6-4.72-.2-9.46.12-14.2.17-5.13,0-5.23,0-5.3-5.25q-.31-24-.48-48c-.17-32.58-.72-65.16-.27-97.73.45-32.28,24.11-65.7,58.23-74.86C873.18-6.54,911.25,7.25,930.29,40a81.09,81.09,0,0,1,11,48,83.36,83.36,0,0,1-20.66,49.53,52.55,52.55,0,0,0-4.74,6.14,15.16,15.16,0,0,0,2.89,20.16,13.92,13.92,0,0,0,7.35,2.58,117.29,117.29,0,0,0,14.19.07c2.49-.09,3.38.66,3.3,3.23-.17,5.63-.07,11.27,0,16.91Z"/><path id="logo--r-inner" class="cls-2" d="M837.21,228H819a2.67,2.67,0,0,1-2.7-2.55v0q-1.2-69.15-2.37-138.29c-.15-8.88.75-17.59,4.84-25.64C832,35.36,863.18,28.81,885.14,44.43c14.78,10.5,21,25.47,19.73,43.43-.52,7.48-3.79,14.05-8.13,20.1-4.93,6.85-10.06,13.57-14.7,20.62-12.06,18.3-6.09,45.49,8.43,59.33,10,9.52,21.8,15,35.75,15.4,4.44.12,8.88.05,13.6,0a2.71,2.71,0,0,1,2.72,2.71v18.2a2.71,2.71,0,0,1-2.68,2.7c-7.27.13-14.71.66-22-.17-24.37-2.79-42.92-15.34-56-35.85a68.16,68.16,0,0,1-10.59-35.1c-.58-17,2.93-32.68,12.77-46.65,3.36-4.77,7.53-9,11.13-13.59,6.81-8.75,6.82-18.75.22-27-5.35-6.71-14.29-8.92-23.28-5.77A20.2,20.2,0,0,0,839,81.19q.4,71,.87,142c0,.67,0,1.35,0,2.07A2.71,2.71,0,0,1,837.21,228Z"/></g><g id="logo--o"><path id="logo--o-outer" class="cls-1" d="M635.17,237.69A115.67,115.67,0,1,1,750.84,122,115.8,115.8,0,0,1,635.17,237.69Zm0-208.33A92.67,92.67,0,1,0,727.84,122,92.77,92.77,0,0,0,635.17,29.35Z"/><path id="logo--o-inner" class="cls-2" d="M635.17,201.69a79.17,79.17,0,1,1,79.17-79.17A79.26,79.26,0,0,1,635.17,201.69Zm0-135.33a56.17,56.17,0,1,0,56.17,56.17A56.23,56.23,0,0,0,635.17,66.35Z"/></g><g id="logo--d"><path id="logo--d-outer" class="cls-1" d="M334.57,7.25c15.19,0,55.22,0,64.63,0h0c28.66,1.62,52.61,14.51,71.88,35.82a114.49,114.49,0,0,1,27.36,54.22,100.13,100.13,0,0,1-1.89,48.82c-8.91,30.89-27.46,54.32-55.24,70.43C425,226,407.36,230.16,388.69,230.43c-17.81.26-35.61.38-53.42.56h-.44a3.74,3.74,0,0,1-3.75-3.72c0-.14,0-.27,0-.39L328.75,13.15A5.83,5.83,0,0,1,334.57,7.25Zm19.72,180.67c0,4.61.34,9.23.69,13.83.27,3.65,1.74,4.92,5.36,4.92,7.55,0,15.1-.05,22.66-.08,11.67,0,23.19-1.29,34.2-5.32,26.89-9.85,45.84-28,54.79-55.32,8.83-26.94,5.34-52.78-10.44-76.52-13-19.52-31-32.23-54.06-36.91-16.14-3.28-32.59-1.24-48.89-1.33-3.95,0-5.94,2.57-6.3,6.62a51.12,51.12,0,0,0-.09,5.4C352.61,67.78,354.22,164.25,354.29,187.92Z"/><g id="logo--d-inner"><path id="inner" class="cls-2" d="M365.07,47.14c0-1.73-.2-3.45,2.38-3.52,13.59-.36,27.24-2,40.59,2.12,26.16,8.08,43.44,25.31,51.53,51.33,4.62,14.85,4.95,30.21-.74,44.8-8.88,22.78-24.25,39.68-48.17,47.22-13.37,4.21-27.34,4-41.21,3.51-.75,0-2-1.35-2.09-2.19a73.5,73.5,0,0,1-.39-8.09C366.48,160.8,365.08,70.68,365.07,47.14Zm25,115c0,4.68,2.34,6.63,7.12,5.94a44,44,0,0,0,23.68-10.65c17.67-16,22.84-37.69,13.83-59.89C428,81,415.18,71.13,397.63,67.88c-6.69-1.24-8.92,1-8.93,7.73Z"/></g></g><g id="logo--e"><path id="logo--e-outer" class="cls-1" d="M302.26,24.17A3.84,3.84,0,0,1,298.42,28h-.23c-17.7,0-35.4-.28-53.08.22a90.43,90.43,0,0,0-21.87,3.44c-12.56,3.56-20.32,12.76-25.42,24.42a59.1,59.1,0,0,0-4.57,24.38c.16,25.92.37,51.84.48,77.77.1,23.06,19.85,44.39,43.61,44.83,19.72.36,60.41.43,61,.35a3.85,3.85,0,0,1,4.34,3.81v16.24a3.84,3.84,0,0,1-3.84,3.84h-.26c-19.84,0-39.68-.34-59.51.12-13.43.31-25.18-3.78-36.24-10.86C186.32,206,175.55,191.27,171.33,172a75.3,75.3,0,0,1-1.6-15.06c-.35-25.58-.25-51.17-.74-76.75-.42-21.93,6.68-40.71,22.35-56,12.7-12.4,27.8-19.82,45.91-19.89,20.4-.08,40.8,0,61.2,0h0a3.83,3.83,0,0,1,3.78,3.84Z"/><path id="logo--e-inner-bottom" class="cls-2" d="M284.6,123.25a3.15,3.15,0,0,1,3.14,3.13c0,6.27,0,12.43-.1,18.58,0,.61-1.37,1.62-2.17,1.7-3.14.3-6.3.39-9.46.4-11.75,0-23.5-.13-35.26,0-14.27.18-14.26,13.62-7.27,17.68,2.81,1.63,5.18,2.14,9.54,2.18,18.38.16,36.75.29,55.13.56,4.8.07,4.8.27,4.81,4.92,0,5-.07,9.92.06,14.88,0,1.16-1.91,3.37-3.64,3.37-19.51,0-39,0-58.52,0-22.79-.1-34.88-17.87-34.65-34.58.14-9.92,0-19.84,0-29.77,0-1.78.19-3.07,2.46-3.07C233.69,123.26,258.71,123.25,284.6,123.25Z"/><path id="logo--e-inner-top" class="cls-2" d="M287.66,89.43v16.31a3.77,3.77,0,0,1-3.77,3.77H206.71c-.34-.43-.47-.52-.48-.61-.48-14.69-2.39-29.48,1.46-44a32,32,0,0,1,27.68-23.37,108.91,108.91,0,0,1,11.12-.62c17.58-.06,35.15,0,52.73-.08,3.09,0,3.84,2.16,3.69,5.46,0,.19.15,14.42.15,14.63a3.66,3.66,0,0,1-3.72,4c-18.59,0-37.19.29-55.77-.12C234.84,64.63,228.2,71.7,229.8,81c.54,3.13,2.16,4.69,5.46,4.67,15.89-.06,31.77,0,47.66,0h1A3.77,3.77,0,0,1,287.66,89.43Z"/></g><g id="logo--l"><path id="logo--l-outer" class="cls-1" d="M0,5.76A1.75,1.75,0,0,1,1.75,4c7,0,14.36,0,20.9,0,2.24,0,2.06,1.48,2.06,3,0,19.95-.12,39.89,0,59.84.25,31.21.75,62.43,1,93.64.13,15.78,11,32.92,27.46,39.1A58.73,58.73,0,0,0,74,203.4c22.54,0,45.08.16,67.62.11,3.33,0,4.45,1,4.17,4.65l0,15c.21,2.88-.26,4-3,4-25.25-.08-50.54.92-75.72-.32-26.73-1.31-51-18.29-61.13-46.48C1.82,169,1.1,157.19,1,145.38.82,102.69,0,19,0,5.76Z"/><path id="logo--l-inner" class="cls-2" d="M145.73,188.35a1.91,1.91,0,0,1-1.9,1.91H141c-23.45,0-46.91-.54-70.34.2-14,.44-30.6-12.37-32.62-28.31a202.75,202.75,0,0,1-1.31-23.93Q36.24,73.62,36,9c0-5,0-5,5.19-5s10.15.13,15.22-.05C59.1,3.85,60,4.78,60,7.39c.21,17.13.62,34.26.79,51.39.32,31.45.51,62.9.76,94.35v.14a13.41,13.41,0,0,0,13.35,13.28c12.27.05,24.54,0,36.81.09,10.37.07,20.74.31,31.1.43,1.6,0,2.91.07,2.89,2.24C145.7,175.49,145.72,181.66,145.73,188.35Z"/></g></g></g></svg>